<?xml version="1.0" encoding="UTF-8" standalone="no"?>
<svg xmlns="http://www.w3.org/2000/svg"
     width="32" height="32" viewBox="0 0 32 32">

  <!-- Hintergrund -->
  <rect x="0" y="0" width="32" height="32" rx="3"
        fill="#FEDD5F" stroke="#000000" stroke-width="1"/>

  <!-- Umgeknickte Ecke -->
  <polygon points="22,2 30,2 30,10"
           fill="#FFE98F" stroke="#000000" stroke-width="1"/>

  <!-- Info-i (kürzerer Strich, gleiche obere Position) -->
  <!-- Punkt -->
  <circle cx="15.7" cy="5.4" r="0.8" fill="#000000"/>
  <!-- Strich (1/3 kürzer) -->
  <rect x="14.55" y="6.8" width="1" height="0.9" fill="#000000"/>
  <rect x="15.55" y="6.8" width="0.9" height="3.2" fill="#000000"/>
  <rect x="14.55" y="9.3" width="2.7" height="0.9" fill="#000000"/>

  <!-- Segelboot -->
  <!-- Rumpf tiefer -->
  <rect x="12" y="21" width="8" height="1.4" fill="#D02020"/>

  <!-- Mast -->
  <rect x="15.7" y="13" width="0.6" height="8.2" fill="#D02020"/>

  <!-- Linkes Segel (kleiner, Abstand zum Mast) -->
  <polygon points="15.5,12.8 13,20.8 15.7,20.8"
           fill="#D02020"/>

  <!-- Rechtes Segel (größer) -->
  <polygon points="16.3,12.8 16.3,20.8 20,20.8"
           fill="#D02020"/>

  <!-- Wellen (3 Linien) -->
  <path d="M10,23
           C11,22.5 12,22.5 13,23
           C14,23.5 15,23.5 16,23
           C17,22.5 18,22.5 19,23
           C20,23.5 21,23.5 22,23"
        fill="none" stroke="#0073E6" stroke-width="1.1"/>

  <path d="M10,25
           C11,24.5 12,24.5 13,25
           C14,25.5 15,25.5 16,25
           C17,24.5 18,24.5 19,25
           C20,25.5 21,25.5 22,25"
        fill="none" stroke="#0073E6" stroke-width="1.1"/>

  <path d="M10,27
           C11,26.5 12,26.5 13,27
           C14,27.5 15,27.5 16,27
           C17,26.5 18,26.5 19,27
           C20,27.5 21,27.5 22,27"
        fill="none" stroke="#0073E6" stroke-width="1.1"/>
</svg>
