<?xml version='1.0' encoding='UTF-8'?>
<svg xmlns="http://www.w3.org/2000/svg" width="37" height="37" viewBox="0 0 9.7895835 9.7895833" version="1.1">
  <g transform="matrix(0.99999841,0,0,1,32.673127,29.165453)">
    <path style="fill:#ffffff;stroke:#000000;stroke-width:0.269632;" d="m -32.535751,-19.676465 0.0064,-7.695701 0.09903,-0.465033 0.240152,-0.571408 0.437852,-0.393465 0.418232,-0.233737 0.457312,0.01597 6.156289,0.04183 0.308492,0.107446 0.432171,0.257976 0.750932,0.909871 0.214847,0.335007 0.07726,3.416753 -0.03113,0.345431 -0.06223,0.283445 -0.07527,0.231807 -0.09872,0.211878 -0.130778,0.196819 -0.115461,0.13976 -0.155803,0.140387 -0.247952,0.142869 -0.242445,0.123935 -0.29986,0.11325 -0.459529,0.06646 -5.065536,-0.07878 z" />

    
    <path style="fill:#004a99;stroke:#ffffff;stroke-width:0.299;" d="m -32.523247,-20.10579 0.011,-7.324442 0.09779,-0.447488 0.23615,-0.549849 0.429054,-0.378616 0.409549,-0.224919 0.447196,0.01546 6.05154,-0.01625 0.405717,0.08928 0.434506,0.249203 0.509216,0.508393 0.274262,0.576575 0.07818,3.47028 -0.07691,0.575196 -0.18238,0.487537 -0.349753,0.409738 -0.465305,0.25505 -0.359656,0.132511 -0.447437,0.06075 -5.146873,-0.04995 z" />

    <path d="M510 1436 c0 -2 90 -246 200 -541 110 -296 200 -540 200 -542 0 -1 76 -3 169 -3 152 0 170 2 176 17 25 65 395 1065 395 1069 0 2 -63 3 -141 2 l-141 -3 -141 -392 c-78 -216 -143 -393 -147 -393 -3 0 -68 177 -146 393 l-141 392 -142 3 c-77 1 -141 1 -141 -2z" transform="translate(-33.12 -23.7) scale(0.00234 -0.00234)" fill="#ffffff" stroke="none" /><path d="M1800 895 l0 -545 140 0 140 0 0 230 0 230 210 0 210 0 0 -230 0 -230 140 0 140 0 0 545 0 545 -140 0 -140 0 0 -210 0 -210 -210 0 -210 0 0 210 0 210 -140 0 -140 0 0 -545z" transform="translate(-32.97 -23.7) scale(0.00234 -0.00234)" fill="#ffffff" stroke="none" /><path d="M3060 895 l0 -545 140 0 140 0 0 230 0 230 225 0 225 0 0 105 0 105 -225 0 -225 0 0 105 0 105 240 0 240 0 0 105 0 105 -380 0 -380 0 0 -545z" transform="translate(-32.82 -23.7) scale(0.00234 -0.00234)" fill="#ffffff" stroke="none" /></g>
</svg>